# Blender v2.79 (sub 0) OBJ File: 'untitled.blend'
# www.blender.org
mtllib SlopedCart.mtl
o Cylinder_Cylinder.020
v 0.195090 -0.500000 -0.217489
v 0.195090 -0.007976 -0.217489
v 0.382683 -0.500000 -0.160583
v 0.382683 -0.004354 -0.160583
v 0.555570 -0.500000 -0.068173
v 0.555570 0.006579 -0.068173
v 0.707107 -0.500000 0.056190
v 0.707107 0.014063 0.056190
v 0.312463 0.006578 0.295662
v 0.312463 -0.500000 0.295662
v 0.397690 0.014062 0.365606
v 0.397690 -0.500000 0.365606
v 0.215228 -0.004355 0.243689
v 0.215228 -0.500000 0.243689
v 0.109722 -0.007976 0.211684
v 0.109722 -0.500000 0.211684
v 0.434017 -0.011361 0.113745
v 0.298956 -0.049644 0.041553
v 0.152406 -0.055979 -0.002902
v 0.552398 0.014062 0.210898
v 0.000000 -0.500000 -0.236704
v 0.000000 -0.006443 -0.236704
v -0.195090 -0.500000 -0.217489
v -0.195090 -0.007976 -0.217489
v -0.382683 -0.500000 -0.160583
v -0.382683 -0.004354 -0.160583
v -0.555570 -0.500000 -0.068173
v -0.555570 0.006579 -0.068173
v -0.707107 -0.500000 0.056190
v -0.707107 0.014063 0.056190
v 0.000000 -0.006444 0.200878
v 0.000000 -0.500000 0.200878
v -0.312463 0.006578 0.295662
v -0.312463 -0.500000 0.295662
v -0.397690 0.014062 0.365606
v -0.397690 -0.500000 0.365606
v -0.215228 -0.004355 0.243689
v -0.215228 -0.500000 0.243689
v -0.109722 -0.007976 0.211684
v -0.109722 -0.500000 0.211684
v -0.434017 -0.011361 0.113745
v -0.298956 -0.049644 0.041553
v -0.152406 -0.055979 -0.002902
v 0.000000 -0.055716 -0.017913
v -0.552398 0.014062 0.210898
vn 0.0980 0.0000 -0.9952
vn 0.2903 0.0000 -0.9569
vn 0.4714 0.0000 -0.8819
vn 0.6344 0.0000 -0.7730
vn 0.0280 0.9759 -0.2163
vn -0.6344 0.0000 0.7730
vn -0.4714 0.0000 0.8819
vn -0.0980 0.0000 0.9952
vn -0.2903 0.0000 0.9569
vn -0.0000 -1.0000 0.0000
vn 0.7071 0.0000 0.7071
vn -0.0164 0.9759 0.2174
vn -0.0875 0.9774 0.1923
vn 0.0254 0.9771 -0.2110
vn -0.0938 0.9731 -0.2103
vn -0.1889 0.9801 0.0604
vn -0.0985 0.9948 -0.0278
vn -0.0698 0.9915 -0.1102
vn -0.0980 0.0000 -0.9952
vn -0.2903 0.0000 -0.9569
vn -0.4714 0.0000 -0.8819
vn -0.6344 0.0000 -0.7730
vn -0.0280 0.9759 -0.2163
vn 0.6344 0.0000 0.7730
vn 0.4714 0.0000 0.8819
vn 0.0980 0.0000 0.9952
vn 0.2903 0.0000 0.9569
vn -0.7071 0.0000 0.7071
vn 0.0164 0.9759 0.2174
vn 0.0875 0.9774 0.1923
vn -0.0254 0.9771 -0.2110
vn 0.0938 0.9731 -0.2103
vn 0.1889 0.9801 0.0604
vn 0.0985 0.9948 -0.0278
vn 0.0698 0.9915 -0.1102
usemtl None
s off
f 21//1 22//1 2//1 1//1
f 1//2 2//2 4//2 3//2
f 3//3 4//3 6//3 5//3
f 5//4 6//4 8//4 7//4
f 31//5 15//5 19//5 44//5
f 12//6 11//6 9//6 10//6
f 10//7 9//7 13//7 14//7
f 16//8 15//8 31//8 32//8
f 14//9 13//9 15//9 16//9
f 32//10 21//10 1//10 3//10 5//10 7//10 12//10 10//10 14//10 16//10
f 7//11 8//11 20//11 11//11 12//11
f 22//12 44//12 19//12 2//12
f 2//13 19//13 18//13 4//13
f 15//14 13//14 18//14 19//14
f 13//15 9//15 17//15 18//15
f 4//16 18//16 17//16 6//16
f 8//17 6//17 17//17 20//17
f 11//18 20//18 17//18 9//18
f 21//19 23//19 24//19 22//19
f 23//20 25//20 26//20 24//20
f 25//21 27//21 28//21 26//21
f 27//22 29//22 30//22 28//22
f 31//23 44//23 43//23 39//23
f 36//24 34//24 33//24 35//24
f 34//25 38//25 37//25 33//25
f 40//26 32//26 31//26 39//26
f 38//27 40//27 39//27 37//27
f 32//10 40//10 38//10 34//10 36//10 29//10 27//10 25//10 23//10 21//10
f 29//28 36//28 35//28 45//28 30//28
f 22//29 24//29 43//29 44//29
f 24//30 26//30 42//30 43//30
f 39//31 43//31 42//31 37//31
f 37//32 42//32 41//32 33//32
f 26//33 28//33 41//33 42//33
f 30//34 45//34 41//34 28//34
f 35//35 33//35 41//35 45//35
